<?xml version="1.0" encoding="UTF-8" standalone="no"?>
<!-- Created with Inkscape (http://www.inkscape.org/) -->

<svg
   xmlns:osb="http://www.openswatchbook.org/uri/2009/osb"
   xmlns:dc="http://purl.org/dc/elements/1.1/"
   xmlns:cc="http://creativecommons.org/ns#"
   xmlns:rdf="http://www.w3.org/1999/02/22-rdf-syntax-ns#"
   xmlns:svg="http://www.w3.org/2000/svg"
   xmlns="http://www.w3.org/2000/svg"
   xmlns:sodipodi="http://sodipodi.sourceforge.net/DTD/sodipodi-0.dtd"
   xmlns:inkscape="http://www.inkscape.org/namespaces/inkscape"
   width="157.42493mm"
   height="141.98212mm"
   viewBox="0 0 157.42493 141.98212"
   version="1.1"
   id="svg8"
   inkscape:version="0.92.1 r15371"
   sodipodi:docname="logo.svg">
  <defs
     id="defs2">
    <linearGradient
       id="linearGradient4538"
       osb:paint="solid">
      <stop
         style="stop-color:#ffa32a;stop-opacity:1;"
         offset="0"
         id="stop4536" />
    </linearGradient>
  </defs>
  <sodipodi:namedview
     id="base"
     pagecolor="#ffffff"
     bordercolor="#666666"
     borderopacity="1.0"
     inkscape:pageopacity="0.0"
     inkscape:pageshadow="2"
     inkscape:zoom="1"
     inkscape:cx="-153.32194"
     inkscape:cy="-57.059747"
     inkscape:document-units="mm"
     inkscape:current-layer="layer1"
     showgrid="false"
     inkscape:window-width="3840"
     inkscape:window-height="2035"
     inkscape:window-x="3827"
     inkscape:window-y="-13"
     inkscape:window-maximized="1"
     inkscape:pagecheckerboard="false"
     fit-margin-top="0"
     fit-margin-left="0"
     fit-margin-right="0"
     fit-margin-bottom="0" />
  <metadata
     id="metadata5">
    <rdf:RDF>
      <cc:Work
         rdf:about="">
        <dc:format>image/svg+xml</dc:format>
        <dc:type
           rdf:resource="http://purl.org/dc/dcmitype/StillImage" />
        <dc:title></dc:title>
      </cc:Work>
    </rdf:RDF>
  </metadata>
  <g
     inkscape:label="Layer 1"
     inkscape:groupmode="layer"
     id="layer1"
     transform="translate(-21.358097,-12.92082)">
    <flowRoot
       xml:space="preserve"
       id="flowRoot4623"
       style="font-style:normal;font-weight:normal;font-size:40px;line-height:1.25;font-family:sans-serif;letter-spacing:0px;word-spacing:0px;fill:#000000;fill-opacity:1;stroke:none"
       transform="scale(0.26458333)"><flowRegion
         id="flowRegion4625"><rect
           id="rect4627"
           width="87"
           height="68"
           x="-593"
           y="723.51971" /></flowRegion><flowPara
         id="flowPara4629"></flowPara></flowRoot>    <g
       id="g5106"
       transform="translate(247.91458,-21.431247)">
      <path
         style="fill:#f7f8f8;stroke-width:0.26458332"
         d="m -155.44271,176.05883 c -4.16967,-0.35995 -8.954,-1.04586 -10.50533,-1.50609 -0.47946,-0.14224 -1.58612,-0.40411 -2.45925,-0.58192 -0.87312,-0.17781 -1.88516,-0.42075 -2.24896,-0.53987 -0.3638,-0.11912 -1.55442,-0.4808 -2.64583,-0.80372 -2.4199,-0.71601 -5.73499,-1.92845 -7.614,-2.7847 -0.76797,-0.34996 -1.45351,-0.63628 -1.52344,-0.63628 -0.17046,0 -5.79803,-2.76473 -7.14425,-3.50984 -10.59671,-5.86512 -20.81174,-15.50574 -27.10733,-25.58302 -1.64612,-2.63494 -4.8035,-8.86841 -5.39831,-10.65764 -0.22922,-0.68949 -0.52175,-1.4634 -0.65008,-1.71979 -0.2834,-0.56621 -0.80165,-2.03426 -1.09859,-3.112 -0.12029,-0.43657 -0.41563,-1.4486 -0.65633,-2.24896 -0.43602,-1.44985 -0.64757,-2.40953 -1.19567,-5.42396 -0.15875,-0.87312 -0.4175,-2.1699 -0.57499,-2.88173 -0.40571,-1.83364 -0.38111,-15.453985 0.0321,-17.776743 0.56512,-3.176709 1.09699,-5.754793 1.46945,-7.122777 0.63019,-2.314516 1.80457,-6.05323 2.2024,-7.011458 0.21146,-0.509323 0.47755,-1.164166 0.5913,-1.455208 0.47744,-1.22151 3.46995,-7.24648 4.20527,-8.466667 0.43847,-0.727604 0.90553,-1.564944 1.03791,-1.860759 0.13237,-0.295812 0.67018,-1.100513 1.19512,-1.788226 0.52494,-0.687713 0.95444,-1.312299 0.95444,-1.387972 0,-0.07567 0.61692,-0.937847 1.37095,-1.915941 6.53286,-8.474265 13.48312,-14.528109 23.3349,-20.325288 1.02286,-0.601893 5.77559,-2.955624 7.8379,-3.88162 2.71161,-1.217544 8.29029,-3.182427 10.98021,-3.86737 0.58208,-0.148219 1.71317,-0.443825 2.51354,-0.656907 0.80036,-0.21308 2.16958,-0.522124 3.04271,-0.686766 0.87312,-0.164642 2.12328,-0.410734 2.77812,-0.546867 3.58832,-0.745974 6.39347,-0.91753 14.94896,-0.914247 9.10656,0.0035 9.58723,0.03897 16.13958,1.191078 5.21645,0.917215 11.73887,2.835372 16.20573,4.765891 0.32742,0.141508 0.8632,0.369563 1.19063,0.506786 1.48905,0.62407 7.88641,3.804087 9.2107,4.578482 7.648497,4.472527 15.637067,11.27597 20.854454,17.760632 1.736127,2.157823 5.448614,7.510645 5.879777,8.477711 0.135207,0.30326 0.599776,1.146696 1.032375,1.8743 1.180187,1.984994 2.998628,5.833547 3.812979,8.069792 0.397446,1.091406 0.881152,2.401093 1.074901,2.910416 0.193749,0.509323 0.550111,1.640417 0.791919,2.513542 0.241806,0.873125 0.550648,1.860992 0.686319,2.195261 0.13567,0.334269 0.246673,0.967176 0.246673,1.406456 0,0.439283 0.12708,1.036145 0.282401,1.326364 0.394298,0.736754 0.748694,3.577487 1.096401,8.788425 0.392118,5.87649 -0.111265,14.10681 -1.10296,18.03349 -0.871601,3.45116 -1.150845,4.43345 -2.030309,7.14194 -2.628284,8.09432 -7.355343,16.25452 -13.565309,23.41744 -2.882138,3.32442 -9.741484,9.58687 -12.492767,11.40567 -0.526534,0.34808 -1.717164,1.15546 -2.645834,1.79417 -1.73403,1.19262 -1.90495,1.29708 -5.22304,3.19237 -1.86392,1.06466 -4.7473,2.47265 -7.57796,3.70039 -0.7276,0.31559 -1.56104,0.68812 -1.85208,0.82786 -0.68549,0.32913 -4.79293,1.81269 -5.82083,2.10242 -0.43656,0.12305 -1.4486,0.42005 -2.24896,0.65999 -1.51478,0.45413 -2.08101,0.59867 -5.15937,1.3171 -7.3159,1.70738 -18.2271,2.40694 -26.45834,1.69636 z"
         id="path5124"
         inkscape:connector-curvature="0" />
      <path
         style="fill:#faebd1;stroke-width:0.26458332"
         d="m -158.48541,175.54907 c -4.92922,-0.66239 -9.51767,-1.5552 -12.30313,-2.39392 -8.25705,-2.48627 -15.48055,-5.59551 -20.76979,-8.94003 -0.94589,-0.59811 -2.03657,-1.26515 -2.42374,-1.48232 -1.47995,-0.83011 -4.97274,-3.46618 -7.92693,-5.98262 -9.30634,-7.92732 -16.24386,-17.6345 -20.4072,-28.55435 -0.58256,-1.52797 -1.1531,-3.13531 -1.26787,-3.57187 -0.11477,-0.43657 -0.4397,-1.62719 -0.72208,-2.64584 -0.5313,-1.91661 -1.10497,-4.63906 -1.70045,-8.06979 -0.46629,-2.68642 -0.46154,-14.155844 0.007,-17.330206 0.35057,-2.374241 0.9134,-5.254858 1.36993,-7.011459 0.42327,-1.628581 1.84984,-6.199076 2.10588,-6.746874 0.13604,-0.291042 0.67364,-1.581224 1.19468,-2.86707 3.9863,-9.837666 10.86429,-18.968598 20.37984,-27.055418 5.41959,-4.605851 12.85808,-9.044872 20.37097,-12.156649 11.93251,-4.942343 24.79285,-7.045807 37.96771,-6.210073 7.20432,0.456999 11.75944,1.200142 17.85937,2.913655 10.36607,2.911899 21.01677,8.234056 28.44271,14.212822 13.709837,11.038048 22.235461,24.45632 25.767883,40.555441 0.87308,3.979087 1.087324,6.585735 1.087324,13.229171 0,6.62443 -0.09674,7.76268 -1.079362,12.69999 -0.551106,2.7691 -2.031101,7.97835 -2.743721,9.6573 -0.123532,0.29104 -0.6652,1.60073 -1.203706,2.91041 -2.879767,7.00381 -7.984588,14.68663 -13.772795,20.72826 -8.787132,9.17184 -19.267853,15.82171 -31.735833,20.13596 -3.47698,1.20312 -3.54874,1.22325 -8.33437,2.33752 -7.48327,1.74237 -11.5723,2.18185 -19.96814,2.14613 -4.76835,-0.0203 -7.62251,-0.16257 -10.19435,-0.50817 z m -7.42695,-22.34068 c 1.58994,-0.80568 2.39986,-2.02627 2.39986,-3.61667 0,-1.60071 -0.74628,-2.87643 -2.14298,-3.66327 -1.06426,-0.59955 -1.53946,-0.67007 -5.52993,-0.82062 -4.51582,-0.17037 -5.2143,-0.317 -7.82406,-1.64248 -2.95006,-1.49831 -5.48839,-4.58714 -6.46532,-7.86749 -0.50379,-1.69162 -0.52711,-2.55356 -0.52324,-19.3368 0.002,-9.66145 0.0945,-17.708602 0.20513,-17.882566 0.14703,-0.231277 2.40393,-0.337952 8.39647,-0.396875 7.29466,-0.07172 8.29119,-0.132879 9.06699,-0.556445 2.5776,-1.407298 2.45127,-4.913257 -0.22626,-6.279234 -0.94823,-0.483746 -1.58482,-0.520941 -8.91626,-0.520941 -5.78787,0 -7.97986,-0.08474 -8.21262,-0.3175 -0.23489,-0.234892 -0.3175,-2.735313 -0.3175,-9.610159 0,-10.412634 -0.1102,-11.219876 -1.69692,-12.430125 -1.23738,-0.9438 -3.16645,-1.328182 -4.65308,-0.92716 -1.54618,0.417083 -3.03278,1.940017 -3.26482,3.344603 -0.0929,0.562448 -0.17025,5.136242 -0.17185,10.163987 -0.002,6.753815 -0.0858,9.224279 -0.32041,9.458854 -0.22322,0.223215 -1.7192,0.3175 -5.03763,0.3175 -4.17314,0 -4.83845,0.06037 -5.74125,0.520941 -1.94573,0.992637 -2.67184,3.221947 -1.61433,4.956317 0.96704,1.586008 1.70164,1.778053 7.20861,1.884551 3.41391,0.06602 5.03045,0.193897 5.21169,0.412279 0.16603,0.200056 0.29837,6.885863 0.35957,18.165513 0.0938,17.2947 0.1145,17.91244 0.66551,19.89382 1.16364,4.18429 2.75882,7.08799 5.4573,9.93388 2.23752,2.35976 3.64976,3.41443 6.38427,4.7678 4.04399,2.00147 6.87555,2.62565 12.10495,2.66836 3.66621,0.0299 3.99206,-0.009 5.19811,-0.62007 z m 46.96476,0.12831 c 1.43354,-0.69793 2.03159,-1.65511 6.45051,-10.3242 2.03987,-4.00182 4.83914,-9.4787 6.22062,-12.17084 1.38148,-2.69213 3.72726,-7.27604 5.21286,-10.18645 1.485594,-2.91042 3.385885,-6.60136 4.222865,-8.20209 0.83698,-1.60073 3.382767,-6.55373 5.657305,-11.00667 3.554555,-6.958871 4.135522,-8.266235 4.135522,-9.306259 0,-2.170044 -1.812269,-3.631859 -4.502558,-3.631859 -1.411509,0 -2.479333,0.40876 -3.212372,1.229683 -0.590899,0.661744 -1.441606,2.307997 -11.464662,22.185945 -10.76175,21.34295 -13.86535,27.42084 -14.22678,27.86077 -0.15549,0.18926 -0.57989,0.30832 -0.94312,0.26458 -0.56212,-0.0677 -0.96066,-0.6702 -2.67779,-4.04827 -2.64992,-5.21311 -9.14209,-17.88054 -11.39051,-22.225 -0.97906,-1.89177 -3.42136,-6.65427 -5.42733,-10.58333 -7.15082,-14.00623 -6.86617,-13.522598 -8.44138,-14.341817 -1.14018,-0.592968 -3.30351,-0.341026 -4.63441,0.539724 -1.05115,0.695613 -1.87075,2.06769 -1.87075,3.13177 0,0.446323 3.13913,6.765665 6.08907,12.257823 0.93209,1.73535 5.76629,10.99568 9.3232,17.85937 0.86724,1.67349 2.32618,4.47146 3.24209,6.21771 2.31089,4.40585 6.90093,13.18682 9.58712,18.3406 1.23772,2.37473 2.53022,4.65024 2.87222,5.05668 1.34952,1.60382 3.77409,2.05787 5.77828,1.08213 z m 11.7954,-74.287222 c 0.002,-3.662886 0.11458,-6.723319 0.25488,-6.945312 0.18476,-0.292344 0.96767,-0.437454 2.97251,-0.550939 1.78647,-0.101124 0.58518,-0.153107 -3.49602,-0.151284 -3.88833,0.0019 -5.25576,0.05945 -3.65003,0.154062 1.5657,0.09225 2.70143,0.285324 2.91042,0.49477 0.25775,0.258316 0.36234,1.980475 0.42181,6.945313 0.0472,3.943202 0.18042,6.601828 0.33073,6.601828 0.15226,0 0.25325,-2.586411 0.2557,-6.548438 z m 10.418683,6.129922 c 0.08833,-0.230182 0.160599,-2.663936 0.160599,-5.408342 0,-3.238341 0.09872,-5.050843 0.281255,-5.163654 0.451726,-0.279183 1.222026,0.605364 2.404192,2.760756 0.606949,1.106627 1.3185,2.395357 1.581229,2.863844 0.262729,0.46849 0.91399,1.659115 1.44725,2.645833 1.285943,2.379457 1.579636,2.690427 2.060265,2.181464 0.201221,-0.213085 1.017831,-1.637583 1.814684,-3.165552 0.796857,-1.527969 1.772878,-3.353951 2.168941,-4.057737 0.39606,-0.703789 0.665715,-1.334008 0.599233,-1.40049 -0.06648,-0.06648 -0.361474,0.33075 -0.655539,0.882737 -2.358829,4.427755 -2.940347,5.467559 -3.408267,6.094291 -0.509741,0.682741 -0.563065,0.696055 -1.172491,0.29279 -0.351152,-0.232362 -1.471898,-1.942261 -2.490544,-3.799773 -2.355477,-4.295238 -4.150542,-7.533767 -4.529222,-8.171297 -0.747368,-1.258239 -0.894736,-0.127076 -0.894736,6.867803 0,6.340372 0.145211,7.848875 0.633151,6.577327 z m 15.709433,-6.809425 c -0.04427,-4.254254 -0.169653,-6.818434 -0.335293,-6.856867 -0.245647,-0.057 -1.984375,2.579669 -1.984375,3.009175 0,0.105912 0.327422,0.230243 0.727604,0.276288 l 0.727604,0.08372 0.06803,5.027083 c 0.07041,5.202515 0.154651,5.968566 0.606665,5.516552 0.161161,-0.161161 0.233514,-2.85146 0.189762,-7.055951 z m -2.584251,-2.826226 c 0.15576,-0.291042 0.223671,-0.529167 0.15091,-0.529167 -0.07276,0 -0.259733,0.238125 -0.415494,0.529167 -0.15576,0.291042 -0.22367,0.529167 -0.15091,0.529167 0.07276,0 0.259734,-0.238125 0.415494,-0.529167 z"
         id="path5122"
         inkscape:connector-curvature="0" />
      <path
         style="fill:#fae5b2;stroke-width:0.26458332"
         d="m -156.76562,175.52572 c -15.11335,-1.85627 -27.89729,-6.56935 -39.29063,-14.48532 -4.03367,-2.80255 -10.07478,-8.20827 -13.19838,-11.81019 -7.49074,-8.63784 -11.85891,-16.85513 -15.11961,-28.44271 -1.80353,-6.40921 -2.37997,-16.78662 -1.33006,-23.944793 0.79675,-5.432184 1.57468,-8.682397 3.10302,-12.964583 4.18927,-11.737644 11.19343,-21.736828 21.12108,-30.152559 10.94172,-9.275371 24.98657,-15.699018 39.29062,-17.970217 6.12803,-0.973008 7.49794,-1.078928 14.02291,-1.084236 6.88188,-0.0056 9.94811,0.237432 15.47813,1.226788 24.35826,4.35786 44.961087,18.841011 55.644959,39.116682 2.818389,5.348687 5.164343,11.836091 6.259822,17.31065 1.672066,8.355988 1.634918,18.031548 -0.101143,26.345598 -3.495376,16.73944 -14.673203,32.87638 -29.727918,42.91689 -5.35434,3.571 -7.60237,4.82415 -12.62885,7.03984 -8.36891,3.68907 -15.81493,5.69958 -25.21309,6.80783 -3.56394,0.42027 -15.15888,0.47747 -18.31086,0.0903 z m -9.26042,-21.9008 c 1.28897,-0.59489 2.08724,-1.4295 2.64573,-2.76616 0.38059,-0.91088 0.38278,-1.14509 0.0223,-2.38499 -0.39296,-1.35174 -1.14096,-2.25668 -2.53577,-3.06781 -0.47098,-0.27389 -1.95667,-0.43222 -5.15937,-0.54985 -4.3209,-0.1587 -4.58011,-0.19982 -6.58641,-1.0449 -3.68034,-1.55021 -6.79583,-5.14348 -7.80402,-9.0008 -0.22729,-0.86957 -0.29103,-5.93501 -0.23643,-18.78541 l 0.0748,-17.594793 8.33438,-0.132292 c 5.82425,-0.09245 8.50274,-0.228854 8.8934,-0.452911 0.30747,-0.176339 0.93254,-0.74603 1.38906,-1.265975 1.26074,-1.435905 1.13972,-3.230859 -0.3275,-4.857623 -1.04359,-1.157063 -1.53236,-1.223008 -10.08725,-1.360991 l -8.20209,-0.132291 -0.134,-9.921875 c -0.0893,-6.616038 -0.23514,-10.147718 -0.43755,-10.599706 -0.45967,-1.026472 -2.06371,-2.305237 -3.32758,-2.652789 -1.37951,-0.379359 -3.54259,-0.0069 -4.68517,0.806646 -0.41964,0.29881 -1.01133,1.056301 -1.31486,1.683313 -0.52861,1.09196 -0.55188,1.548043 -0.55188,10.817765 0,8.580758 -0.0474,9.695945 -0.41851,9.838338 -0.23018,0.08833 -2.43414,0.160599 -4.89768,0.160599 -3.99734,0 -4.60619,0.05971 -5.66014,0.555128 -0.94225,0.442907 -1.31603,0.831151 -1.84903,1.920568 -0.54513,1.114197 -0.62323,1.521685 -0.42451,2.214615 0.33282,1.160471 0.87802,1.882971 1.91905,2.543125 0.79571,0.50459 1.34754,0.567272 5.77457,0.655905 2.80804,0.05622 5.03579,0.213984 5.22552,0.370059 0.25832,0.212492 0.33074,3.987005 0.33078,17.239145 5e-5,17.79042 0.0616,18.91505 1.23199,22.52333 2.35213,7.25137 8.63588,12.89588 16.64833,14.95474 2.53416,0.65117 3.39366,0.74454 6.99047,0.7594 3.45268,0.0143 4.26835,-0.0603 5.15937,-0.47151 z m 47.12655,-0.006 c 1.46295,-0.66435 2.11365,-1.58767 4.70176,-6.67161 5.12146,-10.06029 12.05993,-23.57313 19.613754,-38.19824 7.388489,-14.305013 7.800641,-15.180757 7.800641,-16.574903 0,-2.086385 -1.224627,-3.397935 -3.694999,-3.957269 -1.294347,-0.293063 -3.356903,0.213272 -4.264212,1.046818 -0.470395,0.432155 -2.601299,4.343998 -5.569844,10.224934 -2.64438,5.23875 -8.01196,15.87519 -11.92794,23.63653 -3.91598,7.76134 -7.39717,14.60505 -7.73598,15.20823 -0.7838,1.39545 -1.32862,1.763 -1.83083,1.23513 -0.20532,-0.21582 -2.09872,-3.78567 -4.20756,-7.93302 -2.10883,-4.14734 -4.90377,-9.62421 -6.21097,-12.17083 -1.3072,-2.54661 -3.68476,-7.19005 -5.28346,-10.31875 -10.7084,-20.956614 -10.0274,-19.749019 -11.54248,-20.467971 -2.95774,-1.403541 -7.05255,0.781476 -7.05255,3.763282 0,0.42839 0.5213,1.772587 1.15845,2.987104 0.63715,1.214516 1.98794,3.815556 3.00176,5.780085 3.78571,7.33578 6.56806,12.68315 8.60428,16.53646 1.15348,2.18281 3.14272,5.99281 4.42055,8.46667 1.27783,2.47385 2.9817,5.74807 3.78637,7.27604 0.80467,1.52797 2.70477,5.15937 4.22244,8.06979 6.33466,12.14789 5.81062,11.30251 7.48219,12.0701 1.35634,0.62283 3.14569,0.61945 4.52863,-0.009 z m 11.94616,-74.297994 c 0.0614,-5.760376 0.12743,-6.677284 0.50361,-6.989543 0.26801,-0.222466 1.40042,-0.40981 2.97208,-0.491696 1.42815,-0.07441 2.5391,-0.248057 2.5391,-0.396875 0,-0.167386 -2.41429,-0.2906 -6.57205,-0.335402 -5.21298,-0.05618 -6.54912,-0.0016 -6.4612,0.264584 0.0742,0.224538 0.93818,0.384482 2.61387,0.483883 1.37668,0.08167 2.64711,0.237522 2.82319,0.346345 0.23609,0.14591 0.32015,1.865601 0.32015,6.549641 0,6.24862 0.15566,7.543747 0.8778,7.303339 0.22706,-0.07559 0.33219,-1.921881 0.38345,-6.734276 z m 10.644995,0.950479 c 0,-2.728495 0.103151,-5.024649 0.229222,-5.102566 0.370906,-0.229233 0.914593,0.559326 3.086097,4.476062 3.492773,6.299898 3.290591,5.992116 3.877519,5.902711 0.320776,-0.04886 0.796613,-0.561954 1.180111,-1.272503 0.35343,-0.654844 1.373264,-2.559844 2.266296,-4.233333 2.454476,-4.599549 2.814809,-5.124821 3.261362,-4.754216 0.295643,0.245361 0.390946,1.390753 0.447421,5.377264 0.06892,4.865182 0.09269,5.065493 0.60093,5.065493 0.51634,0 0.529167,-0.17639 0.529167,-7.276041 0,-9.931461 0.443648,-10.073317 -6.100427,1.950598 -0.861094,1.582153 -1.725231,2.937886 -1.920303,3.012741 -0.195072,0.07486 -0.528084,-0.0373 -0.740026,-0.249242 -0.211939,-0.211942 -1.841942,-2.996428 -3.622223,-6.187744 -4.408172,-7.902049 -4.264519,-7.945213 -4.3563,1.308962 -0.05233,5.276551 0.01233,7.211208 0.25066,7.498371 0.279017,0.336193 0.366454,0.32512 0.665846,-0.08432 0.254129,-0.347543 0.344648,-1.774266 0.344648,-5.432234 z"
         id="path5120"
         inkscape:connector-curvature="0" />
      <path
         style="fill:#fbd28e;stroke-width:0.26458332"
         d="m -152.92917,175.66806 c -8.85259,-0.74268 -15.3666,-2.03358 -22.62789,-4.48425 -21.19727,-7.15402 -38.36674,-22.92118 -45.99218,-42.23579 -3.13226,-7.93374 -4.40492,-14.8016 -4.40492,-23.77094 0,-10.965734 2.13752,-19.789696 7.19965,-29.721059 2.94908,-5.785805 6.98119,-11.373683 11.84473,-16.414972 13.1516,-13.632267 30.62713,-21.816541 51.23115,-23.992959 3.88632,-0.410514 15.1178,-0.182536 19.08438,0.38738 19.23731,2.763996 35.23441,10.710828 47.858126,23.77433 10.406297,10.768838 16.541524,23.404867 18.657458,38.426657 0.487746,3.462693 0.407972,12.545743 -0.141751,16.139583 -1.831085,11.97084 -5.979133,21.80581 -13.298857,31.53145 -5.26153,6.99093 -12.776723,13.6679 -20.858856,18.53232 -10.03415,6.03929 -21.01957,9.7793 -33.25955,11.32329 -3.11912,0.39345 -12.8072,0.71338 -15.29149,0.50496 z m -12.37001,-22.26565 c 0.98503,-0.53613 1.40875,-0.98899 1.9386,-2.07196 0.65431,-1.33737 0.6644,-1.43183 0.28822,-2.69855 -0.56764,-1.91145 -0.9498,-2.41127 -2.42451,-3.17092 -1.20692,-0.62172 -1.70572,-0.69689 -5.68854,-0.85729 -4.74638,-0.19115 -6.34464,-0.58852 -8.62488,-2.14437 -1.54169,-1.05192 -3.62839,-3.41762 -4.33552,-4.91519 -1.6093,-3.40816 -1.59169,-3.16986 -1.59169,-21.53387 0,-13.0426 0.0742,-16.916348 0.33073,-17.258037 0.29429,-0.392041 1.25585,-0.448624 8.72771,-0.51359 l 8.39697,-0.07301 1.0906,-1.090946 c 0.87098,-0.871252 1.1178,-1.332246 1.22566,-2.289196 0.17726,-1.572623 -0.6382,-3.069159 -2.14192,-3.930854 -1.07567,-0.616408 -1.22312,-0.627642 -9.15019,-0.697053 -6.03478,-0.05284 -8.10892,-0.15245 -8.26418,-0.396875 -0.114,-0.17948 -0.2091,-4.650168 -0.21133,-9.934866 -0.003,-6.564047 -0.0979,-9.791654 -0.30038,-10.186458 -0.98815,-1.92714 -3.5558,-3.317772 -5.4741,-2.964751 -1.8598,0.342254 -3.15688,1.099669 -3.93537,2.298009 l -0.74524,1.147157 -0.0781,9.98802 -0.078,9.988021 -4.15528,0.01151 c -5.97812,0.01659 -7.06148,0.319882 -8.45476,2.367037 -1.14799,1.68674 -0.43105,4.165253 1.52242,5.263166 0.9124,0.512797 1.39931,0.560358 5.73672,0.560358 3.33366,0 4.8339,0.09419 5.05721,0.3175 0.24023,0.240231 0.31811,4.409598 0.31999,17.131768 0.002,15.74551 0.0361,16.98245 0.53128,19.46011 0.29083,1.4552 0.6657,3.00302 0.83304,3.43958 1.42608,3.72042 3.50501,6.84484 6.08173,9.14021 2.42386,2.1592 3.09095,2.62536 5.45394,3.81127 1.64306,0.82459 2.78167,1.23673 5.88294,2.12945 1.29847,0.37377 5.20672,0.60918 8.06752,0.48595 2.48714,-0.10713 3.09065,-0.22459 4.16871,-0.81135 z m 46.93364,0.21496 c 0.45608,-0.27811 1.12328,-0.90274 1.48264,-1.38807 0.35937,-0.48534 3.24698,-5.94258 6.41691,-12.12722 3.16993,-6.18463 6.74306,-13.14979 7.94029,-15.47812 1.19722,-2.32834 3.459862,-6.73365 5.028087,-9.78959 1.568223,-3.05593 3.813231,-7.40172 4.988901,-9.65729 4.629714,-8.882285 5.98996,-11.848294 5.98996,-13.061051 0,-3.220154 -4.140327,-5.19765 -7.415016,-3.541551 -1.473901,0.745389 -0.915241,-0.258567 -11.299802,20.306772 -12.24065,24.24109 -15.17209,29.99104 -15.48441,30.37228 -0.72869,0.88951 -0.0597,2.09284 -14.53146,-26.13895 -1.97676,-3.8563 -5.05063,-9.86896 -6.83082,-13.361456 -4.57701,-8.979498 -5.22009,-10.104178 -6.20848,-10.858061 -1.77564,-1.354346 -4.79317,-1.091353 -6.588,0.57418 -0.80086,0.74317 -1.49201,2.120392 -1.49201,2.973054 0,0.447638 3.89795,8.343003 6.54842,13.263953 0.50946,0.94588 1.99917,3.80338 3.31047,6.35 1.3113,2.54661 3.2609,6.2565 4.33244,8.2442 1.07154,1.98769 1.94825,3.6718 1.94825,3.74246 0,0.0707 0.90662,1.83765 2.0147,3.92663 1.10808,2.08899 3.06533,5.82223 4.34943,8.29608 1.28411,2.47386 2.9985,5.74808 3.80975,7.27604 0.81125,1.52797 2.20214,4.18679 3.09086,5.90848 2.10557,4.07905 2.84023,4.6753 5.75882,4.67387 1.5127,-8e-4 2.21624,-0.12625 2.84007,-0.50664 z m 11.67706,-74.228683 c 0.0437,-4.070964 0.17521,-6.710891 0.34273,-6.879166 0.14951,-0.150186 1.4273,-0.332595 2.83952,-0.405355 2.3472,-0.120933 2.56769,-0.177731 2.56769,-0.661459 0,-0.514768 -0.17639,-0.529166 -6.48229,-0.529166 -6.30591,0 -6.4823,0.01439 -6.4823,0.529166 0,0.484122 0.22049,0.540428 2.59016,0.661459 1.90623,0.09736 2.65617,0.237085 2.84021,0.529166 0.13882,0.220314 0.25188,3.231653 0.25413,6.768923 0.002,3.504628 0.0884,6.456447 0.1916,6.5596 0.10315,0.103151 0.43057,0.15276 0.7276,0.110241 0.52501,-0.07515 0.54203,-0.261371 0.61095,-6.683409 z m 10.386694,6.059712 c 0.14192,-0.373274 0.258035,-2.694992 0.258035,-5.159374 0,-2.46438 0.104484,-4.480693 0.232187,-4.480693 0.411999,0 0.912876,0.771076 3.499377,5.387131 2.163471,3.861086 2.633234,4.534744 3.162226,4.534744 0.669628,0 0.685162,-0.02429 4.356451,-6.813021 1.521119,-2.812761 2.245606,-3.750902 2.554089,-3.307291 0.02529,0.03638 0.114594,2.386473 0.198438,5.222425 0.141038,4.770601 0.189648,5.163407 0.649901,5.251556 0.273606,0.0524 0.599204,-0.06527 0.723553,-0.261491 0.124349,-0.196217 0.227915,-3.537495 0.230143,-7.425057 0.0038,-6.543731 -0.03137,-7.087251 -0.473226,-7.323725 -0.262504,-0.140488 -0.63699,-0.156723 -0.832191,-0.03608 -0.195204,0.120642 -1.818344,2.880537 -3.606975,6.1331 -2.386115,4.33906 -3.379824,5.913752 -3.731871,5.913752 -0.350774,0 -1.349935,-1.56541 -3.715287,-5.820833 -1.779513,-3.201459 -3.462313,-5.974996 -3.739559,-6.163416 -0.422416,-0.287078 -0.573368,-0.273301 -0.931712,0.08504 -0.371721,0.371721 -0.427627,1.321681 -0.427627,7.266255 0,3.761245 0.07227,7.02696 0.160599,7.257142 0.254254,0.662577 1.144021,0.501086 1.433449,-0.260168 z"
         id="path5118"
         inkscape:connector-curvature="0" />
      <path
         style="fill:#fbca63;stroke-width:0.26458332"
         d="m -155.70729,175.26179 c -12.84248,-1.36662 -23.56064,-4.70448 -33.73437,-10.50558 -16.0497,-9.15161 -27.71352,-22.98142 -33.19321,-39.35723 -7.64992,-22.86145 -1.66528,-48.033575 15.70558,-66.059544 10.29267,-10.680846 23.07646,-18.029169 37.86054,-21.762836 7.52948,-1.901542 13.51931,-2.632782 21.43125,-2.616333 17.82059,0.03705 34.53584,5.338808 48.551041,15.399454 6.462101,4.638744 13.427976,11.733038 17.618878,17.943684 0.714356,1.05863 1.298829,1.997633 1.298829,2.086674 0,0.08904 0.283816,0.540903 0.630703,1.004136 0.346887,0.463232 1.292532,2.092399 2.101432,3.620367 5.012126,9.467623 7.586614,19.750177 7.586614,30.301068 0,18.95191 -8.799538,37.56233 -23.911841,50.57193 -11.328326,9.75211 -24.631286,15.8984 -40.249616,18.59631 -5.66365,0.97833 -16.24655,1.35778 -21.69583,0.7779 z m -9.97748,-21.37563 c 1.29527,-0.66425 2.20685,-1.67119 2.73437,-3.02038 0.38562,-0.98628 0.39003,-1.23571 0.0426,-2.40579 -0.53898,-1.81496 -0.95378,-2.35671 -2.39506,-3.12806 -1.14739,-0.61407 -1.60692,-0.68192 -5.48563,-0.8099 -5.7018,-0.18814 -7.66199,-0.85514 -10.51748,-3.57882 -1.7838,-1.70146 -2.88303,-3.49479 -3.63558,-5.93126 -0.51723,-1.67459 -0.53288,-2.31223 -0.46709,-19.02491 l 0.0681,-17.29225 8.33437,-0.132291 c 5.82425,-0.09245 8.50274,-0.228854 8.8934,-0.452911 0.90403,-0.518486 2.15465,-2.090897 2.34222,-2.944879 0.22302,-1.015434 -0.22515,-2.677956 -0.92419,-3.42828 -1.41216,-1.515774 -1.30039,-1.497971 -10.29909,-1.640597 l -8.34671,-0.132292 -0.13229,-10.054166 c -0.0944,-7.174566 -0.22412,-10.214277 -0.45291,-10.613194 -0.5921,-1.032367 -2.16221,-2.182376 -3.5972,-2.634716 -1.38136,-0.435435 -1.47471,-0.431733 -3.14704,0.124783 -1.80825,0.601745 -2.47265,1.141511 -3.28909,2.672085 -0.44896,0.841656 -0.50603,1.818124 -0.62626,10.715625 l -0.13229,9.789583 -5.02709,0.132292 c -4.59039,0.120801 -5.1084,0.18287 -5.9632,0.714531 -1.11554,0.693838 -2.10659,2.340047 -2.10659,3.499221 0,1.237294 0.9086,2.793804 2.0423,3.498648 0.93422,0.580827 1.33299,0.630727 6.02749,0.754267 l 5.02709,0.132291 0.1529,17.4625 c 0.12934,14.77099 0.22005,17.78466 0.58856,19.55265 0.61334,2.94259 1.39919,4.88448 3.16937,7.83172 2.41272,4.01704 8.00314,8.27367 12.62562,9.61334 0.80037,0.23196 2.05052,0.59224 2.77813,0.80062 0.90412,0.25893 2.81296,0.38759 6.02981,0.40641 4.14033,0.0242 4.82505,-0.033 5.68854,-0.47587 z m 47.1287,-0.0142 c 1.4455,-0.73744 2.27715,-1.84294 3.98956,-5.30327 0.82816,-1.67349 2.61412,-5.18583 3.96879,-7.80521 2.48954,-4.81371 5.00715,-9.71719 10.18842,-19.84375 1.563582,-3.05594 3.527809,-6.86594 4.364951,-8.46666 0.837141,-1.60073 3.395958,-6.58815 5.686258,-11.08314 3.956161,-7.764455 4.158167,-8.235279 4.043846,-9.425049 -0.15948,-1.659739 -1.030195,-2.823271 -2.691722,-3.596936 -2.066621,-0.962287 -4.381312,-0.74694 -5.923989,0.551137 -0.789824,0.664591 -1.384877,1.799672 -12.764044,24.347738 -13.43067,26.61314 -13.12842,26.04228 -13.79638,26.0574 -0.0984,0.002 -1.12203,-1.87118 -2.27471,-4.16313 -2.0014,-3.97951 -4.35361,-8.58147 -9.90612,-19.38073 -2.41109,-4.68942 -5.2839,-10.29855 -10.70533,-20.902086 -2.70753,-5.295532 -3.56929,-6.392233 -5.41295,-6.888678 -2.8542,-0.768557 -6.22439,1.156147 -6.72836,3.842543 -0.16196,0.863278 0.54807,2.66024 2.35358,5.956552 0.35868,0.654843 1.21931,2.321719 1.91252,3.704169 0.69321,1.38245 1.61359,3.16838 2.0453,3.96875 0.43171,0.80036 1.77673,3.37821 2.98894,5.72855 1.21222,2.35035 2.56152,4.93413 2.99846,5.74175 0.43694,0.80762 2.00695,3.82571 3.48892,6.70686 1.48197,2.88115 3.31088,6.36956 4.06424,7.752 0.75336,1.38245 1.84818,3.46605 2.43293,4.63021 2.75778,5.49045 8.17885,15.70082 8.74521,16.47128 0.34805,0.47347 1.07291,1.09329 1.6108,1.37737 1.34285,0.7092 3.95302,0.72016 5.32088,0.0223 z m 11.91968,-67.992117 c 0.16694,-0.311928 0.27389,-2.987141 0.27389,-6.850859 0,-5.536343 0.053,-6.359425 0.41851,-6.499685 0.23019,-0.08833 1.33852,-0.1606 2.46298,-0.1606 2.20232,0 3.15341,-0.383437 2.85834,-1.152364 -0.14891,-0.388069 -0.89764,-0.435136 -6.92215,-0.435136 -6.3286,0 -6.75518,0.03007 -6.75518,0.47625 0,0.89998 0.56161,1.11125 2.95402,1.11125 2.02197,0 2.35411,0.06556 2.59292,0.511773 0.16638,0.310891 0.27389,2.938396 0.27389,6.693958 0,4.455589 0.0887,6.270858 0.3175,6.499686 0.47674,0.476742 1.21659,0.382508 1.52528,-0.194273 z m 10.275139,0.194273 c 0.221014,-0.221015 0.31873,-1.648191 0.321551,-4.696355 0.0039,-4.204438 0.200538,-5.486386 0.752538,-4.905808 0.1372,0.144303 1.339482,2.226902 2.671736,4.627996 1.332254,2.401094 2.589776,4.535569 2.794495,4.743278 0.799708,0.811387 1.506868,-0.04245 4.228221,-5.105191 1.455208,-2.707238 2.764896,-4.884423 2.910416,-4.838187 0.157697,0.0501 0.318027,2.094696 0.396875,5.06112 0.11157,4.197479 0.199184,5.019177 0.559351,5.245959 0.234881,0.147897 0.621834,0.19416 0.859895,0.102807 0.387004,-0.148508 0.432838,-0.981236 0.432838,-7.864078 v -7.697986 l -0.859896,0.08291 c -0.935337,0.09018 -1.22188,0.537474 -5.695479,8.890595 -1.185479,2.213528 -1.869231,3.226803 -2.141982,3.174275 -0.220355,-0.04244 -1.65758,-2.342729 -3.193833,-5.11176 -3.994774,-7.200421 -3.863988,-7.002492 -4.627035,-7.002492 -0.382794,0 -0.776367,0.215432 -0.934966,0.511773 -0.168651,0.315127 -0.273892,3.154463 -0.273892,7.389434 0,5.899642 0.05912,6.936785 0.415774,7.293435 0.497155,0.497158 0.952185,0.529482 1.383393,0.09828 z"
         id="path5116"
         inkscape:connector-curvature="0" />
      <path
         style="fill:#fcb754;stroke-width:0.26458332"
         d="m -153.72292,175.25782 c -13.62534,-1.00241 -26.1591,-4.91171 -37.43853,-11.67711 -19.10929,-11.46175 -31.69415,-30.20654 -34.14,-50.85049 -0.69039,-5.82715 -0.40913,-14.027484 0.66742,-19.459388 3.48296,-17.573834 14.16516,-33.323304 29.88264,-44.057937 19.78713,-13.514099 45.81168,-17.645751 69.73577,-11.071233 17.6585,4.852689 33.549306,15.870267 43.232947,29.97472 0.742135,1.080939 1.349338,2.063205 1.349338,2.182812 0,0.11961 -0.293018,0.217472 -0.65115,0.217472 -0.358135,0 -0.864151,0.231481 -1.12448,0.514403 -0.260331,0.282924 -1.833612,3.021361 -3.49618,6.085416 -1.66257,3.064058 -3.171044,5.571014 -3.352167,5.571014 -0.181123,0 -1.72325,-2.530078 -3.42695,-5.622396 -3.63448,-6.596803 -4.170888,-7.222156 -5.260382,-6.132663 -0.357616,0.357616 -0.415774,1.423482 -0.415774,7.62 0,7.590038 0.0385,7.839225 1.211146,7.839225 1.026348,0 1.153515,-0.519665 1.229469,-5.024252 0.04615,-2.736686 0.175477,-4.358994 0.352179,-4.417721 0.15359,-0.05104 1.215728,1.606034 2.360308,3.682397 2.734476,4.960559 3.172793,5.547394 4.066196,5.444005 0.615706,-0.07125 1.027014,-0.678352 3.326471,-4.909949 1.44314,-2.655755 2.723062,-4.828646 2.84427,-4.828646 0.121209,0 0.220377,1.956782 0.220377,4.348401 0,5.131532 0.158017,5.77507 1.388893,5.656397 l 0.860065,-0.08292 0.07027,-7.474479 c 0.04228,-4.497742 0.17042,-7.474479 0.321749,-7.474479 0.486817,0 4.070223,6.90744 5.465307,10.535033 4.963747,12.907058 5.760598,26.535568 2.318112,39.646508 -2.240018,8.53127 -6.921341,17.75992 -12.642812,24.92374 -3.792598,4.7487 -10.308145,10.78708 -15.508662,14.3729 -15.40089,10.61909 -34.71302,15.8474 -53.44584,14.46922 z m -11.77395,-21.18315 c 1.66357,-0.90456 3.04613,-2.95255 3.03827,-4.5006 -0.002,-0.48016 -0.32986,-1.51932 -0.7276,-2.30922 -0.58706,-1.16589 -0.97216,-1.56427 -2.04609,-2.11667 -1.21496,-0.62495 -1.67916,-0.69276 -5.68854,-0.83106 -3.93799,-0.13584 -4.55273,-0.22278 -6.27578,-0.88756 -3.44862,-1.33053 -6.3347,-4.5734 -7.51022,-8.43867 -0.465,-1.52894 -0.49759,-2.7623 -0.49948,-18.89975 l -0.002,-17.264058 7.60677,-0.0063 c 4.18372,-0.0035 8.06874,-0.113485 8.63336,-0.244477 1.3206,-0.306377 3.00094,-1.933184 3.35501,-3.248134 0.50381,-1.870998 -0.47263,-3.806306 -2.47184,-4.899181 -0.75021,-0.410104 -1.81863,-0.474977 -8.98736,-0.545695 l -8.13594,-0.08026 -0.006,-9.312447 c -0.003,-5.121849 -0.11349,-9.774415 -0.24448,-10.339038 -0.32414,-1.39718 -1.89645,-2.9542 -3.53167,-3.497334 -2.57586,-0.855562 -5.60614,0.164454 -6.80087,2.289223 l -0.66146,1.176366 -0.13229,9.789583 -0.1323,9.789584 -4.89479,0.134471 c -5.54686,0.152387 -6.06642,0.30402 -7.41355,2.163676 -1.55412,2.145405 -0.79809,4.885404 1.72501,6.251773 0.61858,0.334986 1.87398,0.460817 5.68854,0.570172 l 4.89479,0.140324 0.14711,17.594792 c 0.16193,19.36814 0.18685,19.68643 1.84408,23.54792 1.23898,2.88695 2.80746,5.16794 5.03831,7.32708 4.13891,4.00585 6.88708,5.3795 14.13717,7.06632 0.29104,0.0677 2.4937,0.0978 4.89479,0.067 3.457,-0.0445 4.53083,-0.146 5.15938,-0.48778 z m 47.16861,-0.055 c 1.31689,-0.68791 2.1574,-1.87096 4.25903,-5.99472 3.2006,-6.28013 6.61071,-12.92685 8.95166,-17.44789 1.16792,-2.25557 3.58664,-6.95854 5.374949,-10.45104 1.788303,-3.4925 4.262361,-8.31453 5.497904,-10.71562 8.279881,-16.090725 8.31705,-16.170732 8.156948,-17.558043 -0.179861,-1.558531 -1.110824,-2.875616 -2.552436,-3.61107 -1.983308,-1.011809 -5.656354,-0.539147 -6.833626,0.879377 -0.343241,0.413581 -1.948907,3.552102 -13.019749,25.449106 -3.89939,7.7126 -8.26632,16.34464 -9.70428,19.18229 -1.57689,3.11182 -2.76602,5.15938 -2.99633,5.15938 -0.21002,0 -0.68923,-0.59532 -1.06491,-1.32292 -0.77649,-1.50388 -6.72831,-13.12646 -10.56828,-20.6375 -1.41353,-2.7649 -3.75969,-7.3488 -5.21367,-10.18646 -1.45398,-2.83765 -3.98197,-7.778748 -5.61776,-10.980206 -1.63578,-3.201459 -3.27671,-6.142763 -3.64652,-6.53623 -0.98004,-1.042765 -2.20652,-1.534342 -3.81174,-1.527752 -3.01676,0.01239 -5.51626,2.167372 -5.51626,4.755941 0,0.644464 3.85794,8.618807 5.95254,12.303877 0.33086,0.58208 1.64152,3.08239 2.91259,5.55625 1.27107,2.47385 2.82019,5.45041 3.44249,6.61458 0.62229,1.16417 2.6745,5.09323 4.56045,8.73125 1.88595,3.63802 3.96615,7.62661 4.62267,8.86354 0.65652,1.23693 1.99765,3.79677 2.98028,5.68854 6.93239,13.34626 6.46108,12.53977 7.89972,13.51736 0.47568,0.32323 1.15569,0.64915 1.51113,0.72427 1.04168,0.22015 3.64171,-0.0481 4.4232,-0.45631 z m 11.95645,-68.139797 c 0.16695,-0.311947 0.27389,-2.988001 0.27389,-6.853627 v -6.341853 l 2.50453,-0.09169 c 1.95767,-0.07167 2.60661,-0.193868 2.97207,-0.559671 0.36256,-0.362889 0.40271,-0.570854 0.17879,-0.926041 -0.25924,-0.411218 -0.9653,-0.465278 -6.90472,-0.52867 -6.97078,-0.0744 -7.47933,0.006 -7.05352,1.11568 0.26134,0.681037 1.23952,0.939307 3.55758,0.939307 h 2.09944 v 6.200484 c 0,3.410268 0.11611,6.505893 0.25803,6.879167 0.32596,0.857324 1.6869,0.964782 2.11391,0.16691 z"
         id="path5114"
         inkscape:connector-curvature="0" />
      <path
         style="fill:#f9c12f;stroke-width:0.26458332"
         d="m -155.44271,175.00316 c -17.77788,-1.84181 -32.77951,-7.93503 -45.24374,-18.37668 -10.87614,-9.11126 -18.52204,-20.55267 -22.3369,-33.42521 -4.14351,-13.98149 -3.35666,-28.573721 2.28446,-42.365854 5.58715,-13.660157 16.14282,-25.695439 29.70973,-33.874226 10.79207,-6.505979 22.8186,-10.314117 36.36775,-11.515642 5.35285,-0.474687 8.17516,-0.473848 13.56451,0.004 4.05195,0.359289 5.4067,0.539472 9.20211,1.223899 16.15526,2.913272 32.233743,11.508147 43.135642,23.058482 3.374255,3.574963 8.061229,9.673315 8.061229,10.4887 0,0.162809 -0.26789,0.297839 -0.595312,0.300067 -0.993611,0.0068 -1.116333,0.16162 -3.246781,4.09699 -4.794126,8.855718 -4.418777,8.312457 -5.084181,7.358626 -0.285477,-0.409223 -1.740238,-2.946699 -3.232803,-5.638834 -3.031612,-5.468112 -3.282169,-5.820833 -4.134905,-5.820833 -1.389211,0 -1.4331,0.246462 -1.4331,8.047683 0,6.654855 0.03763,7.250194 0.483854,7.654017 0.607663,0.549929 1.210752,0.557564 1.746205,0.02212 0.341061,-0.341058 0.416502,-1.137438 0.419825,-4.431771 0.0041,-4.04373 0.167793,-5.036031 0.719201,-4.359248 0.153815,0.188788 1.197758,2.010127 2.319869,4.047418 3.549375,6.444203 3.604964,6.442144 7.153571,-0.264583 2.262209,-4.275487 2.367476,-4.452638 2.714556,-4.568333 0.239601,-0.07988 0.317918,1.059622 0.317918,4.62565 0,4.964956 0.08911,5.366631 1.190625,5.366631 1.144482,0 1.190421,-0.289457 1.194676,-7.527396 0.0021,-3.790818 0.106958,-7.054821 0.232727,-7.253343 0.449374,-0.709297 4.24787,6.75993 6.085475,11.96626 8.304103,23.5273 2.502799,48.83199 -15.434548,67.32391 -4.795432,4.94369 -9.133368,8.46978 -14.503493,11.78915 -10.92265,6.7515 -23.39779,10.84149 -36.82131,12.07191 -3.35789,0.30779 -11.76734,0.29443 -14.83686,-0.0236 z m -9.40986,-21.27504 c 0.80896,-0.54718 1.41228,-1.26325 1.94225,-2.30519 l 0.76877,-1.51144 -0.57431,-1.66356 c -0.68852,-1.99439 -1.06457,-2.44724 -2.73611,-3.29487 -1.15711,-0.58678 -1.67596,-0.65919 -5.48496,-0.76549 -3.64571,-0.10176 -4.43745,-0.20418 -5.93463,-0.76771 -3.1066,-1.16932 -5.33897,-3.13331 -6.83104,-6.00977 -1.37634,-2.65335 -1.35776,-2.36784 -1.36585,-20.98822 l -0.008,-17.462496 8.33437,-0.132292 8.33438,-0.132292 0.97248,-0.743982 c 1.48563,-1.136546 1.91827,-1.956847 1.92405,-3.648019 0.004,-1.217753 -0.12616,-1.653622 -0.73181,-2.447674 -1.42093,-1.862944 -1.49191,-1.876456 -10.63139,-2.023866 l -8.20208,-0.132292 -0.13229,-10.054166 c -0.12059,-9.164863 -0.17499,-10.117077 -0.61501,-10.765393 -1.09501,-1.613355 -3.99424,-3.040629 -5.63545,-2.774297 -0.50158,0.0814 -1.55048,0.440312 -2.33087,0.797589 -1.11984,0.512676 -1.57794,0.920174 -2.17347,1.933348 l -0.75457,1.283753 -0.1323,9.789583 -0.13229,9.789583 -4.89479,0.132292 c -5.53842,0.149688 -6.12401,0.327152 -7.4612,2.261169 -1.35587,1.961014 -0.86767,4.215447 1.26555,5.844121 l 0.99314,0.758251 5.04865,0.132292 5.04865,0.132292 0.15608,17.462496 c 0.16828,18.82786 0.22744,19.6652 1.63288,23.1126 1.13116,2.77462 3.12622,5.82255 5.09021,7.77651 3.47233,3.45461 6.64647,5.28173 11.37869,6.54987 1.15875,0.31052 2.16497,0.62274 2.23605,0.69383 0.0711,0.0711 2.4542,0.0928 5.2958,0.0482 l 5.16654,-0.081 z m 46.1293,0.55996 c 1.37403,-0.5908 2.71991,-2.23747 4.02586,-4.92558 0.67163,-1.38245 1.5765,-3.16839 2.01083,-3.96875 0.43433,-0.80037 1.66126,-3.18162 2.72652,-5.29167 1.06526,-2.11005 2.59387,-5.08661 3.3969,-6.61458 0.80304,-1.52797 2.79548,-5.3975 4.42763,-8.59896 1.63216,-3.20146 3.922103,-7.6663 5.088765,-9.92187 7.778799,-15.039178 10.785739,-21.066241 10.970188,-21.988483 0.887902,-4.439507 -5.905,-7.462636 -9.244568,-4.114226 -0.53779,0.539216 -2.58355,4.288018 -5.515215,10.106496 -9.61248,19.077873 -18.99198,37.597743 -19.59076,38.682043 -0.34086,0.61726 -0.73882,1.12311 -0.88434,1.1241 -0.14552,0.001 -1.06857,-1.57561 -2.05121,-3.50355 -3.15992,-6.1997 -8.22832,-16.06565 -10.90767,-21.23243 -1.4338,-2.76489 -2.94828,-5.74145 -3.36552,-6.61458 -0.41723,-0.87312 -0.99655,-2.00422 -1.28737,-2.51354 -0.29082,-0.50932 -1.45396,-2.77151 -2.58476,-5.027085 -3.47255,-6.926598 -5.1051,-9.884968 -5.94803,-10.778497 -2.51947,-2.670731 -7.18286,-1.849708 -8.93848,1.573686 -0.73185,1.42708 -0.6309,2.208881 0.59068,4.574603 0.60114,1.164167 2.07046,4.021667 3.26515,6.350003 2.59738,5.06201 4.89154,9.45894 8.283,15.875 1.38458,2.61937 3.49487,6.6675 4.68953,8.99583 3.08973,6.02174 8.43199,16.27121 9.86034,18.91771 0.66758,1.23692 1.50214,2.84427 1.85458,3.57187 2.20469,4.55154 3.49327,5.68187 6.48211,5.68604 0.98694,0.001 2.17757,-0.16223 2.64584,-0.36358 z m 12.18265,-68.110362 c 0.37174,-0.41076 0.44312,-1.394333 0.50403,-6.945312 l 0.071,-6.466782 2.41499,-0.07564 c 1.97116,-0.06175 2.49826,-0.167667 2.86812,-0.576353 0.28957,-0.319979 0.38984,-0.700122 0.27778,-1.05319 -0.1727,-0.544136 -0.27999,-0.551418 -7.10145,-0.48198 l -6.9261,0.0705 -0.0886,0.62583 c -0.1404,0.99233 0.3476,1.217462 2.94484,1.358545 l 2.43537,0.132292 0.1323,6.570197 c 0.12311,6.114211 0.16793,6.596232 0.64588,6.945312 0.69337,0.506423 1.30116,0.471922 1.82183,-0.103415 z"
         id="path5112"
         inkscape:connector-curvature="0" />
      <path
         style="fill:#fcb22d;stroke-width:0.26458332"
         d="m -156.10416,174.88743 c -3.82912,-0.3824 -6.2621,-0.74346 -8.86355,-1.31538 -1.01864,-0.22394 -2.38786,-0.51635 -3.0427,-0.6498 -4.10621,-0.8368 -12.61491,-3.94835 -17.5948,-6.43423 -12.67964,-6.3295 -23.6171,-16.27613 -30.46905,-27.70886 -5.28599,-8.81987 -8.05103,-17.03087 -9.22163,-27.38437 -0.61716,-5.45854 -0.38378,-11.34552 0.68702,-17.330208 4.48598,-25.072104 24.14596,-46.367469 50.53513,-54.738809 7.01,-2.223757 12.24352,-3.225403 20.46521,-3.916852 4.58166,-0.38532 5.90113,-0.400219 10.05417,-0.11354 8.78999,0.606763 15.32221,1.836298 22.6144,4.256611 14.57993,4.839155 27.352669,13.672129 36.503368,25.243864 2.251202,2.84681 3.792773,5.154638 3.62476,5.42649 -0.07681,0.124285 -0.469559,0.293862 -0.872768,0.376835 -0.532321,0.109546 -0.923253,0.499354 -1.427348,1.423239 -0.381828,0.699804 -1.052975,1.927214 -1.491437,2.727579 -0.43846,0.800365 -1.475635,2.705365 -2.304828,4.233333 -0.829196,1.527969 -1.665306,2.941677 -1.858026,3.141575 -0.426315,0.442199 -0.595278,0.187069 -4.095572,-6.184283 -1.359086,-2.473854 -2.649466,-4.706276 -2.867509,-4.960937 -0.492861,-0.575628 -1.725973,-0.601184 -2.279907,-0.04725 -0.35765,0.35765 -0.415774,1.424564 -0.415774,7.631909 0,6.654855 0.03763,7.250194 0.483854,7.654017 0.555577,0.50279 1.181563,0.556403 1.914789,0.163991 0.474324,-0.253851 0.511773,-0.594285 0.511773,-4.652258 0,-3.131349 0.08496,-4.350044 0.298313,-4.278926 0.164073,0.05469 1.248272,1.820785 2.409335,3.924651 2.329328,4.22079 2.928451,5.015841 3.779758,5.015841 0.871818,0 1.110247,-0.346294 4.098835,-5.953124 1.644748,-3.085674 1.940234,-3.571875 2.170806,-3.571875 0.114143,0 0.207536,2.059781 0.207536,4.577291 0,3.207338 0.09503,4.672317 0.3175,4.894792 0.503097,0.503097 1.744022,0.385752 2.054442,-0.194273 0.16887,-0.315537 0.273891,-3.177948 0.273891,-7.465028 0,-7.820575 -0.0575,-7.681661 1.786978,-4.317331 6.203275,11.314793 8.952028,24.723188 7.618909,37.164966 -1.134668,10.58966 -4.547012,20.2094 -10.329732,29.12056 -6.074788,9.36123 -15.418387,18.08431 -25.458336,23.76761 -8.5316,4.82948 -18.74442,8.39175 -28.25427,9.85522 -6.47025,0.9957 -15.25447,1.24703 -21.56354,0.61696 z m -8.49864,-21.15931 c 0.778,-0.53298 1.41597,-1.29116 1.94191,-2.30783 0.77782,-1.50358 0.78033,-1.52283 0.36204,-2.77812 -0.67942,-2.03891 -1.35439,-2.91085 -2.85776,-3.69168 -1.31589,-0.68348 -1.66458,-0.73574 -5.89651,-0.88381 -3.84122,-0.1344 -4.70874,-0.24476 -5.94192,-0.75586 -3.76988,-1.56249 -6.52421,-4.75397 -7.52574,-8.72021 -0.36568,-1.44817 -0.42297,-3.96538 -0.42297,-18.58698 0,-9.30158 0.0893,-16.913304 0.19844,-16.914941 0.10914,-0.0016 3.71078,-0.04023 8.00365,-0.08577 5.0446,-0.0535 8.05881,-0.189084 8.52224,-0.383331 1.26759,-0.53131 2.75776,-2.2542 2.94104,-3.40034 0.31162,-1.948775 -0.60979,-3.877302 -2.29238,-4.797978 -0.72545,-0.396957 -1.92561,-0.4753 -9.03861,-0.590026 l -8.20209,-0.132292 -0.13229,-9.941779 -0.13229,-9.941782 -0.72002,-1.087438 c -0.53271,-0.80455 -1.17859,-1.306295 -2.48281,-1.928741 -2.07185,-0.988803 -3.16056,-0.972502 -5.46348,0.08181 -1.16995,0.535625 -1.61868,0.930648 -2.22078,1.955012 l -0.75457,1.283753 -0.1323,9.789583 -0.13229,9.789583 -4.89479,0.132292 c -5.53842,0.149688 -6.12401,0.327152 -7.4612,2.261169 -1.34505,1.945364 -0.86668,4.217056 1.22378,5.811525 1.15635,0.881991 3.77579,1.241729 8.2218,1.129136 l 2.91041,-0.07371 0.15608,17.462495 c 0.16828,18.82786 0.22744,19.6652 1.63288,23.1126 1.13116,2.77462 3.12622,5.82255 5.09021,7.77651 3.47233,3.45461 6.64647,5.28173 11.37869,6.54987 1.15875,0.31052 2.16485,0.62262 2.23579,0.69356 0.0709,0.0709 2.51358,0.0926 5.42808,0.0482 l 5.2991,-0.0808 z m 46.30093,0.5463 c 1.3033,-0.67397 2.5682,-2.37734 4.25617,-5.73157 0.90822,-1.80477 2.39799,-4.71014 3.3106,-6.45639 0.9126,-1.74625 3.11941,-6.0325 4.90401,-9.525 3.17852,-6.22042 5.2466,-10.25067 10.997223,-21.43125 9.860837,-19.171822 9.561438,-18.479178 8.827449,-20.421841 -1.258758,-3.331583 -6.74752,-4.418412 -9.314727,-1.844408 -0.53779,0.539216 -2.58355,4.288018 -5.515215,10.106496 -11.55002,22.923303 -19.01452,37.649493 -19.61306,38.693223 -0.49328,0.86016 -0.71493,1.05156 -0.91922,0.79375 -0.38409,-0.48471 -3.08655,-5.69136 -12.05534,-23.22618 -1.30255,-2.54662 -3.6182,-7.07099 -5.14588,-10.05417 -1.52769,-2.98318 -3.59672,-7.0313 -4.59786,-8.995831 -2.66271,-5.225045 -3.29608,-6.332919 -4.1005,-7.172555 -2.49902,-2.608411 -7.39078,-1.712251 -9.12628,1.67191 -0.73185,1.42708 -0.6309,2.208881 0.59068,4.574603 0.60114,1.164167 2.07046,4.021667 3.26515,6.350003 2.59738,5.06201 4.89154,9.45894 8.283,15.875 1.38458,2.61937 3.49487,6.6675 4.68953,8.99583 3.08973,6.02174 8.43199,16.27121 9.86034,18.91771 0.66758,1.23692 1.50214,2.84427 1.85458,3.57187 2.26356,4.67309 3.46155,5.68205 6.75134,5.68604 1.28012,0.002 2.34248,-0.14168 2.79801,-0.37724 z m 11.93937,-67.876775 c 0.32973,-0.208121 0.41926,-1.382395 0.52917,-6.941259 l 0.13229,-6.690762 2.37273,-0.07729 c 2.56636,-0.0836 3.408093,-0.469609 3.26131,-1.495616 -0.0763,-0.533283 -0.21549,-0.543764 -7.22154,-0.543764 h -7.14375 l -0.0886,0.62583 c -0.1404,0.99233 0.3476,1.217462 2.94484,1.358545 l 2.43537,0.132292 0.1323,6.570197 c 0.12311,6.114211 0.16793,6.596232 0.64588,6.945312 0.58999,0.430914 1.42478,0.479547 1.99995,0.116512 z"
         id="path5110"
         inkscape:connector-curvature="0" />
      <path
         style="fill:#fda400;stroke-width:0.26458332"
         d="m -155.83958,174.61528 c -7.175,-0.68686 -12.18757,-1.72719 -18.81868,-3.90569 -21.03563,-6.91079 -37.9668,-22.14278 -45.84208,-41.24144 -1.11307,-2.69935 -1.8932,-5.01937 -2.56309,-7.62232 -0.28089,-1.0914 -0.62042,-2.40109 -0.75453,-2.91042 -0.73225,-2.78103 -1.60586,-10.25991 -1.60854,-13.77052 -0.003,-3.80291 0.91039,-10.874706 1.91192,-14.804475 0.27815,-1.091406 0.6202,-2.44268 0.7601,-3.002832 0.96562,-3.866177 4.81848,-12.362373 7.52729,-16.598895 5.09578,-7.969713 13.08356,-16.130275 20.89074,-21.342609 12.16408,-8.121163 25.21363,-12.515447 41.01041,-13.809786 1.89177,-0.155007 4.33255,-0.281829 5.42396,-0.281829 3.7837,0 11.70656,0.809593 15.74271,1.608661 0.7276,0.14405 1.97776,0.390954 2.77812,0.548674 1.35917,0.267838 1.93338,0.415542 5.02708,1.293085 13.60678,3.859641 25.456517,10.950639 35.139036,21.027543 3.181422,3.311007 7.988049,9.37673 7.988049,10.080519 0,0.203026 -0.236437,0.369136 -0.525413,0.369136 -0.66666,0 -1.246727,0.881158 -4.453466,6.765081 -1.408962,2.585247 -2.693691,4.744374 -2.854957,4.79806 -0.161266,0.05369 -1.631117,-2.317699 -3.266334,-5.269743 -1.635218,-2.952046 -3.158834,-5.575715 -3.385817,-5.830377 -0.542917,-0.609123 -1.979195,-0.597336 -2.53863,0.02082 -0.385598,0.42608 -0.437882,1.372058 -0.437882,7.922498 0,7.386944 0.0041,7.441504 0.588039,7.850521 0.821279,0.575246 1.678114,0.513291 2.312069,-0.16718 0.490807,-0.526817 0.539475,-0.920663 0.539475,-4.365625 0,-2.082612 0.0893,-3.783798 0.198437,-3.780414 0.109141,0.0034 1.018847,1.521433 2.02157,3.373437 2.399477,4.431787 2.897405,5.087086 3.865409,5.087086 0.557723,0 0.940988,-0.234479 1.405538,-0.859896 0.546875,-0.736245 3.421435,-5.989267 4.270042,-7.803144 0.152648,-0.326287 0.366842,-0.594178 0.475982,-0.595313 0.109141,-0.0011 0.198438,1.953964 0.198438,4.344662 0,3.598791 0.07154,4.418269 0.415774,4.7625 0.479798,0.479798 1.248669,0.534815 1.982869,0.141883 0.485032,-0.259583 0.511985,-0.622499 0.515824,-6.945313 0.0021,-3.669281 0.101174,-6.824487 0.219877,-7.011572 0.143663,-0.226422 0.791257,0.790896 1.936906,3.042709 2.829811,5.56211 4.214431,9.318365 5.782116,15.685984 0.831213,3.376221 1.582084,9.961134 1.583936,13.890624 0.0021,4.23193 -0.83199,10.76748 -1.907595,14.94896 -0.280742,1.09141 -0.620639,2.42369 -0.755327,2.96064 -0.938459,3.74121 -4.048959,10.72242 -6.932898,15.56019 -4.516287,7.57602 -12.688175,16.24046 -20.337727,21.56355 -6.62182,4.60792 -14.70184,8.52786 -22.32354,10.83005 -4.52846,1.36785 -6.24934,1.79975 -9.39271,2.35735 -8.56934,1.5201 -15.81839,1.85045 -23.8125,1.08517 z m -11.13685,-19.69192 c 1.86729,-0.35412 3.43517,-1.49509 4.32383,-3.14652 0.89157,-1.65684 0.90985,-2.46667 0.097,-4.29965 -0.75355,-1.69935 -1.16636,-2.10066 -3.07447,-2.98883 -1.35759,-0.6319 -1.72097,-0.67711 -5.46183,-0.67953 -3.79768,-0.002 -4.10498,-0.0423 -5.86971,-0.76042 -3.05243,-1.2422 -4.91632,-2.97554 -6.30683,-5.86507 -1.74318,-3.6224 -1.67536,-2.76712 -1.67536,-21.12771 V 99.356249 h 7.10764 c 8.06378,0 9.42636,-0.168421 10.91753,-1.349452 1.36584,-1.08176 1.81858,-2.017252 1.81858,-3.757658 0,-1.786429 -0.68996,-2.895015 -2.49747,-4.012781 l -1.29687,-0.801984 -8.0247,-0.09201 -8.02471,-0.09201 v -9.614206 c 0,-5.287815 -0.10869,-9.900084 -0.24153,-10.249488 -0.60512,-1.59159 -3.79588,-3.63267 -5.67837,-3.632369 -1.18102,1.91e-4 -3.60729,0.976299 -4.48922,1.806054 -0.41351,0.389046 -0.97906,1.149096 -1.25677,1.689002 -0.46927,0.912299 -0.50494,1.652963 -0.50494,10.484366 v 9.502719 l -4.69635,0.117549 c -4.09251,0.102436 -4.83244,0.188084 -5.75469,0.666126 -3.90923,2.026308 -3.59918,7.26178 0.52917,8.935381 0.29104,0.117985 2.61276,0.286186 5.15937,0.373782 l 4.63021,0.159263 0.13229,17.330207 c 0.0728,9.53161 0.22093,17.5088 0.32927,17.72708 0.10833,0.21828 0.30388,1.11125 0.43454,1.98438 1.03265,6.90037 8.02962,14.65885 15.28912,16.95308 3.30689,1.04509 4.02098,1.23379 5.37832,1.42126 2.18914,0.30235 7.15523,0.31308 8.7069,0.0188 z m 48.70768,-0.41566 c 1.37184,-0.70325 2.64935,-2.48929 4.81576,-6.7327 1.22585,-2.4011 3.64016,-7.10406 5.36516,-10.45104 1.72499,-3.34698 4.26322,-8.28808 5.6405,-10.98021 1.37729,-2.69214 3.575837,-6.97839 4.885662,-9.525 12.663463,-24.620848 12.015503,-23.225195 11.884212,-25.597677 -0.06249,-1.129167 -1.577983,-2.807504 -3.189049,-3.531722 -0.981083,-0.441023 -1.598121,-0.527737 -3.107862,-0.436763 -2.335879,0.140756 -3.704302,0.997535 -4.75244,2.975536 -0.590151,1.113705 -9.565143,18.783456 -11.893503,23.415626 -0.4023,0.80036 -1.03084,2.05052 -1.39675,2.77812 -0.36592,0.72761 -1.31693,2.63261 -2.11338,4.23334 -0.79643,1.60073 -1.57254,3.14854 -1.72468,3.43958 -0.81497,1.55905 -3.79317,7.50732 -4.04186,8.07269 -0.78147,1.77657 -3.1393,5.81738 -3.39209,5.81331 -0.15784,-0.003 -1.77525,-2.93738 -3.59426,-6.52185 -1.81901,-3.58447 -4.1705,-8.12913 -5.22552,-10.09925 -1.05503,-1.97013 -1.91823,-3.65874 -1.91823,-3.75247 0,-0.21355 -2.16132,-4.40102 -3.27476,-6.34472 -0.45848,-0.80037 -1.02155,-1.87193 -1.25127,-2.38125 -0.8988,-1.99275 -6.86976,-13.686633 -8.81506,-17.263934 -1.9888,-3.65728 -3.79534,-4.805524 -6.8037,-4.324469 -2.68583,0.429482 -4.99829,2.674112 -4.98664,4.840367 0.006,1.130657 1.08165,3.669524 2.55559,6.03241 0.18154,0.291041 0.40335,0.70776 0.49291,0.926041 0.31683,0.772274 3.63642,7.280245 3.8569,7.561365 0.12308,0.15692 1.23686,2.30004 2.47508,4.7625 1.23821,2.46245 2.71042,5.31061 3.27157,6.32926 0.56116,1.01865 2.39288,4.53099 4.0705,7.80521 1.67761,3.27422 3.40102,6.54844 3.82979,7.27604 0.42877,0.7276 1.29095,2.39448 1.91596,3.70417 0.62501,1.30968 1.82224,3.6314 2.6605,5.15937 0.83826,1.52797 2.44427,4.56406 3.56891,6.74688 2.08982,4.05611 2.59454,4.79138 3.96058,5.76973 1.34394,0.9625 4.63174,1.12159 6.23147,0.30151 z m 11.87724,-68.049889 c 0.53731,-0.445227 0.56131,-0.712115 0.62463,-6.945312 l 0.0658,-6.482292 2.37273,-0.07729 c 2.5539,-0.08319 3.31581,-0.427469 3.31581,-1.498304 0,-1.155176 -0.28777,-1.202534 -7.30732,-1.202534 -3.66977,0 -6.86065,0.07227 -7.09083,0.1606 -0.56774,0.21786 -0.53457,1.504439 0.0525,2.035712 0.33712,0.305094 1.10793,0.44835 2.71197,0.504029 l 2.24099,0.07778 0.13229,6.439982 c 0.13096,6.374839 0.13861,6.445097 0.75692,6.945313 0.77649,0.628189 1.4024,0.640657 2.12449,0.04231 z"
         id="path5108"
         inkscape:connector-curvature="0" />
    </g>
  </g>
</svg>
