<svg version="1" xmlns="http://www.w3.org/2000/svg" width="793.333" height="793.333" viewBox="0 0 595.000000 595.000000"><path d="M261 32.5C168.8 43.7 89.7 90.6 42.7 162c-8.5 13-22.4 41-27.2 54.9C2.9 253.5-.8 293.3 4.6 332.5c9.1 65.8 47.7 127.9 106.4 171.2 42.2 31.2 92.2 50.5 149.5 57.9 14.9 1.9 48.6 2.2 68 .5C387.9 556.9 447.8 533 494 496c111.4-89.3 130.9-241.6 45.1-352-13.8-17.8-39.4-42.2-59.1-56.2-43.7-31.2-99.7-51.6-153.3-55.8-16.9-1.3-53-1-65.7.5zM142.5 153c2.2 1 5 2.7 6.1 3.7 5.2 4.4 5.2 4.3 5.9 44.3.4 20.6.9 37.7 1.2 38 .2.3 14 .7 30.6 1 26.6.5 30.6.8 34 2.4 5.2 2.6 8 6.8 8.5 13.2.4 5.1.3 5.4-4.1 10.1l-4.6 4.8-31.3.5c-17.2.3-31.9.9-32.5 1.3-1.8 1.1-1.9 126.9-.2 134.9 1.8 8.2 6.5 16.6 13.6 23.9 11 11.5 16.5 13.4 41.2 14.9 18.2 1.1 23 2.8 26.8 9.5 3.7 6.6 3.9 10.7.7 16.5-2.2 4-3.8 5.5-8.1 7.6-5.1 2.6-6 2.6-22.1 2.6-18.4-.1-25.8-1.5-39.9-7.4-25.7-10.6-45.6-34.4-51.5-61.2-1.8-8.4-2.1-14.4-2.7-74.8-.3-36.1-1-66-1.4-66.5-.5-.4-9.3-1-19.5-1.3-17.7-.5-18.9-.6-22.1-2.9-4.3-3.1-7.5-10.1-6.6-14.7.3-1.9 2.2-5.1 4.3-7.3 4.9-5.1 9.9-6.1 29.6-6.1h15.3l.5-38 .6-38.1 2.6-3.7c5.6-8.2 16.6-11.3 25.1-7.2zm332.1 15.3c1.7 1.7-2 3.1-10.1 3.7-4.7.4-9.1 1.2-9.7 1.8-.7.7-1.2 9.5-1.6 24.4-.2 12.8-.9 24.1-1.4 25-.7 1.5-3.4 2.5-4 1.5 0-.1-.4-11.5-.7-25.4-.3-13.8-.9-25.5-1.4-25.9-.4-.4-4.9-1.1-10-1.5-10.9-.9-9.7-.6-9.7-2.3 0-.8.8-1.7 1.8-1.9 2.8-.8 46-.3 46.8.6zm19.2 2.9c1.6 2.4 7.1 11.6 12.2 20.6 5 9 10.2 17.5 11.5 19l2.4 2.7 1.8-2.4c1-1.4 6.7-11.1 12.6-21.5 12-21.3 13.8-23.6 16.1-21.6 2.4 1.9 2.4 54.1.1 56-3.1 2.6-3.8-.5-4.5-19.4-.3-10.2-.9-18.8-1.2-19.2-1-.9-5.2 5.4-11.3 16.6-10.3 19.1-11.7 21.1-14.4 20.8-2-.2-4.2-3.3-12-16.9-5.3-9.1-10.3-17.4-11.1-18.4-1.4-1.7-1.5-1.5-2.2 2.1-.4 2.1-.7 9.8-.7 17.1-.1 14.2-1 18.7-3.8 18.1-2.8-.5-3.4-6.8-3.1-31.4.2-17.7.6-23.5 1.7-24.7 2-2.5 2.7-2.2 5.9 2.5zm-201.4 62.2c1.8.7 4.6 3 6.3 5.1 1.7 2 10.7 18.6 20.1 36.8 9.4 18.3 29.2 56.9 44 85.8 34.9 68.1 34.6 67.5 37 64.6.6-.7 16.4-31.6 35.2-68.7 50.2-99.1 57.4-113.2 60.4-117.7 6.7-10.2 24.3-9.8 31.4.7 1.9 2.8 2.3 4.5 2 8.6-.5 6.1-5.9 17.2-50.3 103.4-67.7 131.5-63.8 124.4-69.9 128.1-2.2 1.4-5 1.9-9.9 1.9-8 0-12.4-1.7-15.7-6.2-2-2.8-22.8-42.2-68.2-129.3-7.8-14.9-18.4-35.1-23.6-45-12.3-23.4-26.2-51.5-26.2-53.2 0-2.2 3.6-8.6 6.2-11 5.3-5 14.5-6.7 21.2-3.9z"/></svg>